# xmcd CD database file
#
# Track frame offsets:
#	150
#	28719
#	55606
#	94302
#	141595
#	156036
#	174758
#	195806
#	221259
#
# Disc length: 3191 seconds
#
# Revision: 0
# Processed by: cddbd v1.4PL0 Copyright (c) Steve Scherf et al.
# Submitted via: CDex 1.50
#
DISCID=6d0c7509
DTITLE=Christian Howes - Jazz on Sale
DYEAR=2001
DGENRE=Jazz
TTITLE0=Blue Monk Pt.1 (Thelonius Monk)
TTITLE1=Amor Casi Imposible (Federico Lechner)
TTITLE2=A Child Is Born (Thad Jones)
TTITLE3=Blue In Green (Miles Davis)
TTITLE4=When She's Like Water (Christian Howes)
TTITLE5=Jazz on Sale (Christian Howes)
TTITLE6=Very Early (Bill Evans)
TTITLE7=Falling Grace (Steve Swallow)
TTITLE8=Blue Monk Pt. 2 (Thelonius Monk)
EXTD=YEAR: 2001
EXTT0=
EXTT1=
EXTT2=
EXTT3=
EXTT4=
EXTT5=
EXTT6=
EXTT7=
EXTT8=
PLAYORDER=
